# xmcd CD database file
#
# Track frame offsets:
#	150
#	15457
#	32032
#	47917
#	70090
#	87897
#	112437
#	128202
#	141952
#	167362
#	186955
#	201200
#
# Disc length: 2945 seconds
#
# Revision: 0
# Processed by: cddbd v1.4PL0 Copyright (c) Steve Scherf et al.
# Submitted via: CDex 1.50beta10
#
DISCID=a90b7f0c
DTITLE=Roy Roberts - Every Shade of Blue
DYEAR=1997
DGENRE=Blues
TTITLE0=I'll Understand
TTITLE1=I Got A Gypsy Woman
TTITLE2=Hard to Find A Woman
TTITLE3=What Should I Do
TTITLE4=Comin' Through The Back Door
TTITLE5=Why You Didn't Come Home
TTITLE6=Have You Seen My Baby
TTITLE7=My Baby Left Me
TTITLE8=Sweet As A Honey Bee
TTITLE9=A Woman Needs Love
TTITLE10=Let's Wrap Up
TTITLE11=You And Me Together
EXTD=YEAR: 1997
EXTT0=
EXTT1=
EXTT2=
EXTT3=
EXTT4=
EXTT5=
EXTT6=
EXTT7=
EXTT8=
EXTT9=
EXTT10=
EXTT11=
PLAYORDER=
